<svg width="208" height="224" viewBox="0 0 208 224" fill="none" xmlns="http://www.w3.org/2000/svg">
<path d="M8.32001 50.1501L96.32 2.00006C98.6713 0.70088 101.314 0.0194092 104 0.0194092C106.686 0.0194092 109.329 0.70088 111.68 2.00006L199.68 50.1701C202.193 51.5451 204.291 53.5697 205.754 56.0323C207.218 58.495 207.993 61.3054 208 64.1701V159.81C207.993 162.675 207.218 165.485 205.754 167.948C204.291 170.41 202.193 172.435 199.68 173.81L111.68 221.98C109.329 223.279 106.686 223.961 104 223.961C101.314 223.961 98.6713 223.279 96.32 221.98L8.32001 173.81C5.80689 172.435 3.70903 170.41 2.24551 167.948C0.781998 165.485 0.00650258 162.675 0 159.81V64.1801C0.00112935 61.3103 0.774089 58.4936 2.23788 56.0252C3.70168 53.5568 5.80243 51.5276 8.32001 50.1501ZM104 104L184.35 60.0001L104 16.0001L23.65 60.0001L104 104ZM96 203.64V117.83L16 74.0501V159.81L96 203.64Z" fill="#D99BFF"/>
</svg>
